# xmcd
#
# Track frame offsets:
#	150
#	16356
#	39978
#	63479
#	79462
#	99946
#	119652
#	134904
#	175119
#	196722
#	218283
#	238402
#	256242
#	272124
#	310015
#	324327
#
# Disc length: 4588 seconds
#
# Revision: 0
# Processed by: cddbd v1.5.2PL0 Copyright (c) Steve Scherf et al.
# Submitted via: EZCDAudioConverter 1.3.4.1
#
DISCID=df11ea10
DTITLE=Various Artist - Kenya Special 1/2
DYEAR=1900
DGENRE=
TTITLE0=The Loi Toki Tok - Ware Wa
TTITLE1=Rift Valley Brothers - Mu Africa
TTITLE2=Slim Ali and The Famous Hodi Boys - Watoto Nyara
TTITLE3=Mombasa Vikings - Mama Matotoya
TTITLE4=Lulus Band - Ngwendeire Guita
TTITLE5=Mbiri Young Stars - Ndiri Ndanogio Niwe
TTITLE6=Gatanga Boys Band - Wendo Ti Mbia
TTITLE7=Orchestre Vévé Star - Nitarudia
TTITLE8=Hafusa Abasi and Slim Ali With Yahoos Band - Sina Raha
TTITLE9=DO 7 Band - H.O. Ongili
TTITLE10=New Gatanga Sound - Thoni Ni Caki
TTITLE11=Lulus Band - Nana
TTITLE12=Nashil Pichen and The Eagles Lupopo - Ng'ong'a Wa Mwanjalo
TTITLE13=Orchestre Baba National - Sweet Sweet Mbombo
TTITLE14=Afro 70 - Cha-Umheja
TTITLE15=Peter Tsotsi Juma and The Eagles Lupopo - Kajo Golo Weka
EXTD=
EXTT0=
EXTT1=
EXTT2=
EXTT3=
EXTT4=
EXTT5=
EXTT6=
EXTT7=
EXTT8=
EXTT9=
EXTT10=
EXTT11=
EXTT12=
EXTT13=
EXTT14=
EXTT15=
PLAYORDER=
